<svg version="1.0" xmlns="http://www.w3.org/2000/svg"
  width="20px" height="20px" viewBox="0 0 256.000000 256.000000"
  preserveAspectRatio="xMidYMid meet">

  <g transform="translate(0.000000,256.000000) scale(0.100000,-0.100000)"
  fill="rgb(255, 209, 2)" stroke="none">
  <path d="M1666 1651 c-350 -395 -643 -721 -651 -725 -27 -10 -48 5 -215 158
  -269 246 -281 256 -317 271 -49 21 -139 19 -188 -4 -49 -23 -99 -74 -119 -123
  -21 -49 -20 -134 2 -180 9 -21 160 -213 336 -427 349 -428 352 -431 456 -431
  61 0 123 26 162 67 47 51 1268 2029 1268 2055 0 33 -29 58 -67 58 -28 0 -86
  -62 -667 -719z"/>
  </g>
</svg>
